ffmpeg version 3.4.8-0ubuntu0.2 Copyright (c) 2000-2020 the FFmpeg developers
  built with gcc 7 (Ubuntu 7.5.0-3ubuntu1~18.04)
  configuration: --prefix=/usr --extra-version=0ubuntu0.2 --toolchain=hardened --libdir=/usr/lib/x86_64-linux-gnu --incdir=/usr/include/x86_64-linux-gnu --enable-gpl --disable-stripping --enable-avresample --enable-avisynth --enable-gnutls --enable-ladspa --enable-libass --enable-libbluray --enable-libbs2b --enable-libcaca --enable-libcdio --enable-libflite --enable-libfontconfig --enable-libfreetype --enable-libfribidi --enable-libgme --enable-libgsm --enable-libmp3lame --enable-libmysofa --enable-libopenjpeg --enable-libopenmpt --enable-libopus --enable-libpulse --enable-librubberband --enable-librsvg --enable-libshine --enable-libsnappy --enable-libsoxr --enable-libspeex --enable-libssh --enable-libtheora --enable-libtwolame --enable-libvorbis --enable-libvpx --enable-libwavpack --enable-libwebp --enable-libx265 --enable-libxml2 --enable-libxvid --enable-libzmq --enable-libzvbi --enable-omx --enable-openal --enable-opengl --enable-sdl2 --enable-libdc1394 --enable-libdrm --enable-libiec61883 --enable-chromaprint --enable-frei0r --enable-libopencv --enable-libx264 --enable-shared
  libavutil      55. 78.100 / 55. 78.100
  libavcodec     57.107.100 / 57.107.100
  libavformat    57. 83.100 / 57. 83.100
  libavdevice    57. 10.100 / 57. 10.100
  libavfilter     6.107.100 /  6.107.100
  libavresample   3.  7.  0 /  3.  7.  0
  libswscale      4.  8.100 /  4.  8.100
  libswresample   2.  9.100 /  2.  9.100
  libpostproc    54.  7.100 / 54.  7.100
[h264 @ 0x560a6c97b7e0] left block unavailable for requested intra mode
[h264 @ 0x560a6c97b7e0] error while decoding MB 0 10, bytestream 2750
[h264 @ 0x560a6c97b7e0] concealing 491 DC, 491 AC, 491 MV errors in I frame
[aac @ 0x560a6c981000] If you heard an audible artifact, there may be a bug in the decoder. Clipped noise gain (292 -> 155) is not implemented. Update your FFmpeg version to the newest one from Git. If the problem still occurs, it means that your file has a feature which has not been implemented.
[aac @ 0x560a6c981000] If you want to help, upload a sample of this file to ftp://upload.ffmpeg.org/incoming/ and contact the ffmpeg-devel mailing list. (ffmpeg-devel@ffmpeg.org)
[aac @ 0x560a6c981000] If you heard an audible artifact, there may be a bug in the decoder. Clipped noise gain (300 -> 155) is not implemented. Update your FFmpeg version to the newest one from Git. If the problem still occurs, it means that your file has a feature which has not been implemented.
[aac @ 0x560a6c981000] If you want to help, upload a sample of this file to ftp://upload.ffmpeg.org/incoming/ and contact the ffmpeg-devel mailing list. (ffmpeg-devel@ffmpeg.org)
[aac @ 0x560a6c981000] TNS filter order 30 is greater than maximum 12.
Input #0, mov,mp4,m4a,3gp,3g2,mj2, from '/root/results/2020-11-30_15:05:31/nyan_cat-trimmed459_0.00038.mp4':
  Metadata:
    major_brand     : isom
    minor_version   : 512
    compatible_brands: isomiso2avc1mp41
    encoder         : Lavf58.45.100
  Duration: 00:00:00.68, start: 0.000000, bitrate: 371 kb/s
    Stream #0:0(und): Video: h264 (High) (avc1 / 0x31637661), yuv420p, 540x360 [SAR 1:1 DAR 3:2], 225 kb/s, 29.97 fps, 29.97 tbr, 30k tbn, 59.94 tbc (default)
    Metadata:
      handler_name    : Core Media Video
    Stream #0:1(und): Audio: aac (LC) (mp4a / 0x6134706D), 44100 Hz, stereo, fltp, 126 kb/s (default)
    Metadata:
      handler_name    : Core Media Audio
Stream mapping:
  Stream #0:0 -> #0:0 (h264 (native) -> mpeg4 (native))
  Stream #0:1 -> #0:1 (aac (native) -> mp3 (libmp3lame))
Press [q] to stop, [?] for help
[aac @ 0x560a6c9a5cc0] If you heard an audible artifact, there may be a bug in the decoder. Clipped noise gain (292 -> 155) is not implemented. Update your FFmpeg version to the newest one from Git. If the problem still occurs, it means that your file has a feature which has not been implemented.
[aac @ 0x560a6c9a5cc0] If you want to help, upload a sample of this file to ftp://upload.ffmpeg.org/incoming/ and contact the ffmpeg-devel mailing list. (ffmpeg-devel@ffmpeg.org)
[aac @ 0x560a6c9a5cc0] If you heard an audible artifact, there may be a bug in the decoder. Clipped noise gain (300 -> 155) is not implemented. Update your FFmpeg version to the newest one from Git. If the problem still occurs, it means that your file has a feature which has not been implemented.
[aac @ 0x560a6c9a5cc0] If you want to help, upload a sample of this file to ftp://upload.ffmpeg.org/incoming/ and contact the ffmpeg-devel mailing list. (ffmpeg-devel@ffmpeg.org)
[aac @ 0x560a6c9a5cc0] TNS filter order 30 is greater than maximum 12.
Error while decoding stream #0:1: Invalid data found when processing input
[h264 @ 0x560a6c9af9a0] left block unavailable for requested intra mode
[h264 @ 0x560a6c9af9a0] error while decoding MB 0 10, bytestream 2750
[h264 @ 0x560a6c9af9a0] concealing 491 DC, 491 AC, 491 MV errors in I frame
[h264 @ 0x560a6c9d2da0] cabac decode of qscale diff failed at 21 0
[h264 @ 0x560a6c9d2da0] error while decoding MB 21 0, bytestream 2340
[h264 @ 0x560a6c9d2da0] concealing 782 DC, 782 AC, 782 MV errors in P frame
[aac @ 0x560a6c9a5cc0] SSR is not implemented. Update your FFmpeg version to the newest one from Git. If the problem still occurs, it means that your file has a feature which has not been implemented.
[aac @ 0x560a6c9a5cc0] If you want to help, upload a sample of this file to ftp://upload.ffmpeg.org/incoming/ and contact the ffmpeg-devel mailing list. (ffmpeg-devel@ffmpeg.org)
Error while decoding stream #0:1: Not yet implemented in FFmpeg, patches welcome
[h264 @ 0x560a6c9b4ac0] concealing 694 DC, 694 AC, 694 MV errors in B frame
[aac @ 0x560a6c9a5cc0] invalid band type
Error while decoding stream #0:1: Invalid data found when processing input
[h264 @ 0x560a6ca982e0] left block unavailable for requested intra mode
[h264 @ 0x560a6ca982e0] error while decoding MB 0 3, bytestream 1684
[h264 @ 0x560a6ca982e0] concealing 729 DC, 729 AC, 729 MV errors in P frame
[aac @ 0x560a6c9a5cc0] Number of bands (60) exceeds limit (43).
Error while decoding stream #0:1: Invalid data found when processing input
[aac @ 0x560a6c9a5cc0] channel element 2.15 is not allocated
Error while decoding stream #0:1: Invalid data found when processing input
[aac @ 0x560a6c9a5cc0] Number of bands (64) exceeds limit (43).
Error while decoding stream #0:1: Invalid data found when processing input
[h264 @ 0x560a6cab4260] concealing 258 DC, 258 AC, 258 MV errors in B frame
[aac @ 0x560a6c9a5cc0] Number of bands (60) exceeds limit (43).
Error while decoding stream #0:1: Invalid data found when processing input
[h264 @ 0x560a6cb082a0] error while decoding MB 32 1, bytestream -36
[h264 @ 0x560a6cb082a0] concealing 765 DC, 765 AC, 765 MV errors in P frame
[aac @ 0x560a6c9a5cc0] invalid band type
Error while decoding stream #0:1: Invalid data found when processing input
[h264 @ 0x560a6cb24600] cabac decode of qscale diff failed at 28 0
[h264 @ 0x560a6cb24600] error while decoding MB 28 0, bytestream 1042
[h264 @ 0x560a6cb24600] concealing 782 DC, 782 AC, 782 MV errors in B frame
[aac @ 0x560a6c9a5cc0] Number of bands (47) exceeds limit (43).
Error while decoding stream #0:1: Invalid data found when processing input
[h264 @ 0x560a6cb5ccc0] Reference 3 >= 2
[h264 @ 0x560a6cb5ccc0] error while decoding MB 26 13, bytestream 23
[h264 @ 0x560a6cb5ccc0] concealing 363 DC, 363 AC, 363 MV errors in B frame
[h264 @ 0x560a6cb79020] Reference 4 >= 4
[h264 @ 0x560a6cb79020] error while decoding MB 4 1, bytestream 1486
[aac @ 0x560a6c9a5cc0] channel element 3.5 is not allocated
Error while decoding stream #0:1: Invalid data found when processing input
[h264 @ 0x560a6cb79020] concealing 782 DC, 782 AC, 782 MV errors in P frame
[aac @ 0x560a6c9a5cc0] invalid band type
Error while decoding stream #0:1: Invalid data found when processing input
[h264 @ 0x560a6cb95380] concealing 279 DC, 279 AC, 279 MV errors in B frame
[h264 @ 0x560a6cbb16e0] error while decoding MB 28 18, bytestream -5
[h264 @ 0x560a6cbb16e0] concealing 191 DC, 191 AC, 191 MV errors in B frame
[h264 @ 0x560a6c9d2da0] Reference 5 >= 4
[h264 @ 0x560a6c9d2da0] error while decoding MB 28 3, bytestream 589
[h264 @ 0x560a6c9d2da0] concealing 701 DC, 701 AC, 701 MV errors in P frame
Output #0, avi, to '/root/results/2020-11-30_15:05:31/nyan_cat-trimmed459_0.00038.avi':
  Metadata:
    major_brand     : isom
    minor_version   : 512
    compatible_brands: isomiso2avc1mp41
    ISFT            : Lavf57.83.100
    Stream #0:0(und): Video: mpeg4 (FMP4 / 0x34504D46), yuv420p, 540x360 [SAR 1:1 DAR 3:2], q=2-31, 200 kb/s, 29.97 fps, 29.97 tbn, 29.97 tbc (default)
    Metadata:
      handler_name    : Core Media Video
      encoder         : Lavc57.107.100 mpeg4
    Side data:
      cpb: bitrate max/min/avg: 0/0/200000 buffer size: 0 vbv_delay: -1
    Stream #0:1(und): Audio: mp3 (libmp3lame) (U[0][0][0] / 0x0055), 44100 Hz, stereo, fltp (default)
    Metadata:
      handler_name    : Core Media Audio
      encoder         : Lavc57.107.100 libmp3lame
[aac @ 0x560a6c9a5cc0] Sample rate index in program config element does not match the sample rate index configured by the container.
[aac @ 0x560a6c9a5cc0] decode_pce: Input buffer exhausted before END element found
Error while decoding stream #0:1: Operation not permitted
Past duration 0.999992 too large
    Last message repeated 14 times
frame=   18 fps=0.0 q=2.0 Lsize=      44kB time=00:00:00.70 bitrate= 509.9kbits/s dup=0 drop=2 speed=9.14x    
video:26kB audio:7kB subtitle:0kB other streams:0kB global headers:0kB muxing overhead: 32.952831%
